<svg width="28" height="31" viewBox="0 0 28 31" fill="none" xmlns="http://www.w3.org/2000/svg">
<path d="M9 25.5L14 29.5L19 25.5L13.2857 26.0714L9 25.5Z" fill="#F8F8F8" stroke="#868686" stroke-opacity="0.25"/>
<circle cx="14" cy="14" r="14" fill="#F8F8F8"/>
<circle cx="14" cy="14" r="13.5" stroke="#868686" stroke-opacity="0.25"/>
<path d="M22.1993 21.25H5.8006C4.61747 21.25 3.87497 20.0116 4.44966 19.0084L12.649 4.77063C13.2397 3.73938 14.7603 3.73938 15.3509 4.77063L23.5503 19.0084C24.125 20.0116 23.3825 21.25 22.1993 21.25Z" fill="#FF4400"/>
<path d="M24.2 18.6334L16.0016 4.39563C15.7967 4.04681 15.5042 3.75758 15.1532 3.55662C14.8021 3.35566 14.4046 3.24994 14 3.24994C13.5955 3.24994 13.198 3.35566 12.8469 3.55662C12.4958 3.75758 12.2033 4.04681 11.9985 4.39563L3.80003 18.6334C3.60291 18.9708 3.49902 19.3546 3.49902 19.7453C3.49902 20.1361 3.60291 20.5198 3.80003 20.8572C4.00228 21.2081 4.29425 21.4989 4.64599 21.6997C4.99773 21.9006 5.39658 22.0042 5.80159 22H22.1985C22.6032 22.0039 23.0016 21.9001 23.353 21.6993C23.7044 21.4985 23.9961 21.2078 24.1982 20.8572C24.3956 20.52 24.4998 20.1363 24.5001 19.7456C24.5004 19.3548 24.3969 18.971 24.2 18.6334ZM22.8997 20.1063C22.8282 20.2282 22.7256 20.3289 22.6024 20.3981C22.4792 20.4673 22.3398 20.5024 22.1985 20.5H5.80159C5.66029 20.5024 5.52088 20.4673 5.39765 20.3981C5.27442 20.3289 5.17181 20.2282 5.10034 20.1063C5.0356 19.9966 5.00145 19.8717 5.00145 19.7444C5.00145 19.6171 5.0356 19.4921 5.10034 19.3825L13.2988 5.14469C13.3717 5.02335 13.4748 4.92295 13.598 4.85324C13.7212 4.78354 13.8603 4.7469 14.0019 4.7469C14.1435 4.7469 14.2826 4.78354 14.4058 4.85324C14.529 4.92295 14.6321 5.02335 14.705 5.14469L22.9035 19.3825C22.9676 19.4924 23.0011 19.6176 23.0005 19.7449C22.9998 19.8722 22.965 19.997 22.8997 20.1063ZM13.25 14.5V10.75C13.25 10.5511 13.329 10.3603 13.4697 10.2197C13.6104 10.079 13.8011 10 14 10C14.1989 10 14.3897 10.079 14.5304 10.2197C14.671 10.3603 14.75 10.5511 14.75 10.75V14.5C14.75 14.6989 14.671 14.8897 14.5304 15.0303C14.3897 15.171 14.1989 15.25 14 15.25C13.8011 15.25 13.6104 15.171 13.4697 15.0303C13.329 14.8897 13.25 14.6989 13.25 14.5ZM15.125 17.875C15.125 18.0975 15.059 18.315 14.9354 18.5C14.8118 18.685 14.6361 18.8292 14.4305 18.9144C14.225 18.9995 13.9988 19.0218 13.7806 18.9784C13.5623 18.935 13.3619 18.8278 13.2045 18.6705C13.0472 18.5132 12.9401 18.3127 12.8966 18.0945C12.8532 17.8762 12.8755 17.65 12.9607 17.4445C13.0458 17.2389 13.19 17.0632 13.375 16.9396C13.56 16.816 13.7775 16.75 14 16.75C14.2984 16.75 14.5845 16.8685 14.7955 17.0795C15.0065 17.2905 15.125 17.5766 15.125 17.875Z" fill="black"/>
</svg>
