<svg width="28" height="31" viewBox="0 0 28 31" fill="none" xmlns="http://www.w3.org/2000/svg">
<path d="M9 25.5L14 29.5L19 25.5L13.2857 26.0714L9 25.5Z" fill="#F8F8F8" stroke="#868686" stroke-opacity="0.25"/>
<circle cx="14" cy="14" r="14" fill="#F8F8F8"/>
<circle cx="14" cy="14" r="13.5" stroke="#868686" stroke-opacity="0.25"/>
<path opacity="0.71" d="M23 14C23 15.78 22.4722 17.5201 21.4832 19.0001C20.4943 20.4802 19.0887 21.6337 17.4442 22.3149C15.7996 22.9961 13.99 23.1743 12.2442 22.8271C10.4984 22.4798 8.89472 21.6226 7.63604 20.364C6.37737 19.1053 5.5202 17.5016 5.17294 15.7558C4.82567 14.01 5.0039 12.2004 5.68509 10.5558C6.36628 8.91131 7.51983 7.50571 8.99987 6.51677C10.4799 5.52784 12.22 5 14 5C16.387 5 18.6761 5.94821 20.364 7.63604C22.0518 9.32387 23 11.6131 23 14Z" fill="#409340"/>
<path d="M14 4.25C12.0716 4.25 10.1866 4.82183 8.58319 5.89317C6.97982 6.96451 5.73013 8.48726 4.99218 10.2688C4.25422 12.0504 4.06114 14.0108 4.43735 15.9021C4.81355 17.7934 5.74215 19.5307 7.10571 20.8943C8.46928 22.2579 10.2066 23.1865 12.0979 23.5627C13.9892 23.9389 15.9496 23.7458 17.7312 23.0078C19.5127 22.2699 21.0355 21.0202 22.1068 19.4168C23.1782 17.8134 23.75 15.9284 23.75 14C23.7473 11.415 22.7192 8.93661 20.8913 7.10872C19.0634 5.28084 16.585 4.25273 14 4.25ZM14 22.25C12.3683 22.25 10.7733 21.7661 9.41655 20.8596C8.05984 19.9531 7.00242 18.6646 6.378 17.1571C5.75358 15.6496 5.5902 13.9908 5.90853 12.3905C6.22685 10.7902 7.01259 9.32015 8.16637 8.16637C9.32016 7.01259 10.7902 6.22685 12.3905 5.90852C13.9909 5.59019 15.6497 5.75357 17.1571 6.37799C18.6646 7.00242 19.9531 8.05984 20.8596 9.41655C21.7661 10.7733 22.25 12.3683 22.25 14C22.2475 16.1873 21.3775 18.2843 19.8309 19.8309C18.2843 21.3775 16.1873 22.2475 14 22.25ZM13.25 14.75V9.5C13.25 9.30109 13.329 9.11032 13.4697 8.96967C13.6103 8.82902 13.8011 8.75 14 8.75C14.1989 8.75 14.3897 8.82902 14.5303 8.96967C14.671 9.11032 14.75 9.30109 14.75 9.5V14.75C14.75 14.9489 14.671 15.1397 14.5303 15.2803C14.3897 15.421 14.1989 15.5 14 15.5C13.8011 15.5 13.6103 15.421 13.4697 15.2803C13.329 15.1397 13.25 14.9489 13.25 14.75ZM15.125 18.125C15.125 18.3475 15.059 18.565 14.9354 18.75C14.8118 18.935 14.6361 19.0792 14.4305 19.1644C14.225 19.2495 13.9988 19.2718 13.7805 19.2284C13.5623 19.185 13.3618 19.0778 13.2045 18.9205C13.0472 18.7632 12.94 18.5627 12.8966 18.3445C12.8532 18.1262 12.8755 17.9 12.9606 17.6945C13.0458 17.4889 13.19 17.3132 13.375 17.1896C13.56 17.066 13.7775 17 14 17C14.2984 17 14.5845 17.1185 14.7955 17.3295C15.0065 17.5405 15.125 17.8266 15.125 18.125Z" fill="black"/>
</svg>
